<svg xmlns="http://www.w3.org/2000/svg" viewBox="0 0 503 346" width="503" height="346"><defs></defs><g transform="matrix(1,0,0,1,-663.315527512,-366.967301227)">
<g>
	<g>
		<path d="M801.9307869279149,409.1874083186115 C833.3750613242594,382.0725513394996 873.4802816356329,367.0975048278469 914.9999999999992,366.9673012273543 C999.6287242755922,366.9673012273543 1069.8808132532727,429.88841934938296 1077.5254205967426,511.0252169395905 C1127.6098925356935,518.1034507111985 1166.6844724881303,560.041408038558 1166.6844724881303,611.5104981209325 C1166.6844724881303,668.0132931514206 1119.555991968743,713.0326987726419 1062.455735497093,713.0326987726419 C1062.455735497093,713.0326987726419 782.2678805355471,713.0326987726419 782.2678805355471,713.0326987726419 C717.0502372360041,713.0326987726419 663.3155275118683,661.6263314294931 663.3155275118683,597.1951041021997 C663.3155275118683,541.730425105963 703.1445580870719,495.798234970477 755.872530240339,484.1578677754476 C760.3713312467462,457.00745717968556 777.8319675081403,429.9513016304601 801.9307869279149,409.1874083186115 C801.9307869279149,409.1874083186115 801.9307869279149,409.1874083186115 801.9307869279149,409.1874083186115 Z" fill="#3643cd"/>
	</g>
	<g>
		<path d="M1004.3070415511293,527.1899562317977 C1004.3070415511293,527.1899562317977 921.2150531245796,444.098496186153 921.2150531245796,444.098496186153 C917.6769516687211,440.56043405498974 913.0388455390976,438.7914104968499 908.4005906906266,438.7914104968499 C903.7623358421557,438.7914104968499 899.124229712532,440.56043405498974 895.586122536718,444.098496186153 C895.586122536718,444.098496186153 879.1543773006481,460.5301663478046 879.1543773006481,460.5301663478046 C879.1543773006481,460.5301663478046 899.502690579048,480.87848105619327 899.502690579048,480.87848105619327 C906.2487319298767,476.90913212297266 915.0499133111309,477.75841970006854 920.8454410294762,483.5496059720646 C926.6364728626693,489.34063780525776 927.4859205985238,498.1418249064676 923.5165688053253,504.8923564224927 C923.5165688053253,504.8923564224927 943.5083057675802,524.8840991047031 943.5083057675802,524.8840991047031 C950.2543413984533,520.9147530314604 959.0550766231656,521.7640406085561 964.8504670625749,527.5552211605966 C971.7254533739398,534.4288632823803 971.7254533739398,545.5754896038806 964.8504670625749,552.4492747245558 C957.976979379594,559.3229111263839 946.8307992146356,559.3229111263839 939.9570140939602,552.4492747245558 C934.1659708208557,546.6580941725155 933.3165345249126,537.8569127912613 937.285886318111,531.1065242741278 C937.285886318111,531.1065242741278 917.2941379159449,511.1147815919174 917.2941379159449,511.1147815919174 C915.8683131276407,511.95087323129616 914.3633127130338,512.5668495368086 912.8011813812537,512.967355112454 C912.8011813812537,512.967355112454 912.8011813812537,567.0282977212418 912.8011813812537,567.0282977212418 C920.3789672051565,568.9909289087115 926.0028047342878,575.8162888847345 926.0028047342878,584.010045294194 C926.0028047342878,593.7312929839318 918.1213922238226,601.6124080567024 908.4005906906266,601.6124080567024 C898.6797948773863,601.6124080567024 890.7983709270098,593.7312929839318 890.7983709270098,584.010045294194 C890.7983709270098,575.8162888847345 896.4222198960524,568.9909289087115 903.9999999999995,567.0282977212418 C903.9999999999995,567.0282977212418 903.9999999999995,512.9717022787587 903.9999999999995,512.9717022787587 C901.0561218582629,512.2104333794222 898.2572445926114,510.7495166631186 895.9557403517771,508.4480067023286 C890.1647027986282,502.6568204303326 889.3154152215325,493.8556390490784 893.2846125759279,487.1052562519005 C893.2846125759279,487.1052562519005 872.9321008500706,466.75259294721826 872.9321008500706,466.75259294721826 C872.9321008500706,466.75259294721826 812.4946624910727,527.1899562317977 812.4946624910727,527.1899562317977 C805.4185532436298,534.2660218645788 805.4185532436298,545.7383253017265 812.4946624910727,552.8145396533547 C812.4946624910727,552.8145396533547 895.586122536718,635.9063679211454 895.586122536718,635.9063679211454 C899.124229712532,639.4480958288948 903.7623358421557,641.2174382745629 908.4005906906266,641.2174382745629 C913.0388455390976,641.2174382745629 917.6769516687211,639.4480958288948 921.2150531245796,635.9108752462087 C921.2150531245796,635.9108752462087 1004.3070415511293,552.8188868196594 1004.3070415511293,552.8188868196594 C1011.3829470251517,545.7428326267898 1011.3829470251517,534.2660218645788 1004.3070415511293,527.1899562317977 C1004.3070415511293,527.1899562317977 1004.3070415511293,527.1899562317977 1004.3070415511293,527.1899562317977 Z" fill="#000000"/>
	</g>
</g></g></svg>