<svg xmlns="http://www.w3.org/2000/svg" viewBox="0 0 1622 650" width="1622" height="650"><defs></defs><g transform="matrix(1,0,0,1,-625,-215)">
<g>
	<g>
		<path d="M801.9307869279149,409.1874083186115 C833.3750613242594,382.0725513394996 873.4802816356329,367.0975048278469 914.9999999999992,366.9673012273543 C999.6287242755922,366.9673012273543 1069.8808132532727,429.88841934938296 1077.5254205967426,511.0252169395905 C1127.6098925356935,518.1034507111985 1166.6844724881303,560.041408038558 1166.6844724881303,611.5104981209325 C1166.6844724881303,668.0132931514206 1119.555991968743,713.0326987726419 1062.455735497093,713.0326987726419 C1062.455735497093,713.0326987726419 782.2678805355471,713.0326987726419 782.2678805355471,713.0326987726419 C717.0502372360041,713.0326987726419 663.3155275118683,661.6263314294931 663.3155275118683,597.1951041021997 C663.3155275118683,541.730425105963 703.1445580870719,495.798234970477 755.872530240339,484.1578677754476 C760.3713312467462,457.00745717968556 777.8319675081403,429.9513016304601 801.9307869279149,409.1874083186115 C801.9307869279149,409.1874083186115 801.9307869279149,409.1874083186115 801.9307869279149,409.1874083186115 Z" fill="#3643cd"/>
	</g>
	<g>
		<path d="M1004.3070415511293,527.1899562317977 C1004.3070415511293,527.1899562317977 921.2150531245796,444.098496186153 921.2150531245796,444.098496186153 C917.6769516687211,440.56043405498974 913.0388455390976,438.7914104968499 908.4005906906266,438.7914104968499 C903.7623358421557,438.7914104968499 899.124229712532,440.56043405498974 895.586122536718,444.098496186153 C895.586122536718,444.098496186153 879.1543773006481,460.5301663478046 879.1543773006481,460.5301663478046 C879.1543773006481,460.5301663478046 899.502690579048,480.87848105619327 899.502690579048,480.87848105619327 C906.2487319298767,476.90913212297266 915.0499133111309,477.75841970006854 920.8454410294762,483.5496059720646 C926.6364728626693,489.34063780525776 927.4859205985238,498.1418249064676 923.5165688053253,504.8923564224927 C923.5165688053253,504.8923564224927 943.5083057675802,524.8840991047031 943.5083057675802,524.8840991047031 C950.2543413984533,520.9147530314604 959.0550766231656,521.7640406085561 964.8504670625749,527.5552211605966 C971.7254533739398,534.4288632823803 971.7254533739398,545.5754896038806 964.8504670625749,552.4492747245558 C957.976979379594,559.3229111263839 946.8307992146356,559.3229111263839 939.9570140939602,552.4492747245558 C934.1659708208557,546.6580941725155 933.3165345249126,537.8569127912613 937.285886318111,531.1065242741278 C937.285886318111,531.1065242741278 917.2941379159449,511.1147815919174 917.2941379159449,511.1147815919174 C915.8683131276407,511.95087323129616 914.3633127130338,512.5668495368086 912.8011813812537,512.967355112454 C912.8011813812537,512.967355112454 912.8011813812537,567.0282977212418 912.8011813812537,567.0282977212418 C920.3789672051565,568.9909289087115 926.0028047342878,575.8162888847345 926.0028047342878,584.010045294194 C926.0028047342878,593.7312929839318 918.1213922238226,601.6124080567024 908.4005906906266,601.6124080567024 C898.6797948773863,601.6124080567024 890.7983709270098,593.7312929839318 890.7983709270098,584.010045294194 C890.7983709270098,575.8162888847345 896.4222198960524,568.9909289087115 903.9999999999995,567.0282977212418 C903.9999999999995,567.0282977212418 903.9999999999995,512.9717022787587 903.9999999999995,512.9717022787587 C901.0561218582629,512.2104333794222 898.2572445926114,510.7495166631186 895.9557403517771,508.4480067023286 C890.1647027986282,502.6568204303326 889.3154152215325,493.8556390490784 893.2846125759279,487.1052562519005 C893.2846125759279,487.1052562519005 872.9321008500706,466.75259294721826 872.9321008500706,466.75259294721826 C872.9321008500706,466.75259294721826 812.4946624910727,527.1899562317977 812.4946624910727,527.1899562317977 C805.4185532436298,534.2660218645788 805.4185532436298,545.7383253017265 812.4946624910727,552.8145396533547 C812.4946624910727,552.8145396533547 895.586122536718,635.9063679211454 895.586122536718,635.9063679211454 C899.124229712532,639.4480958288948 903.7623358421557,641.2174382745629 908.4005906906266,641.2174382745629 C913.0388455390976,641.2174382745629 917.6769516687211,639.4480958288948 921.2150531245796,635.9108752462087 C921.2150531245796,635.9108752462087 1004.3070415511293,552.8188868196594 1004.3070415511293,552.8188868196594 C1011.3829470251517,545.7428326267898 1011.3829470251517,534.2660218645788 1004.3070415511293,527.1899562317977 C1004.3070415511293,527.1899562317977 1004.3070415511293,527.1899562317977 1004.3070415511293,527.1899562317977 Z" fill="#000000"/>
	</g>
	<g>
		<path d="M628.9999999999995,214.99999999999977 L1278.9999999999995,214.99999999999977 L1278.9999999999995,864.9999999999998 L628.9999999999995,864.9999999999998 L628.9999999999995,214.99999999999977 Z" fill="#376a80" fill-opacity="0"/>
	</g>
	<g>
		<path d="M1316.618113830291,642.6788089189065 Q1293.8951151283527,642.6788089189065 1277.0395574057882,633.0419816133897 Q1260.2195599315835,623.4051543078729 1250.938335109665,605.8383916181115 Q1241.6926705361066,588.2360686799905 1241.6926705361066,564.446262527257 Q1241.6926705361066,540.8698178646825 1251.7206605735817,523.4097359200008 Q1261.7486506110565,505.94965397531905 1279.3509735491778,496.31282666980223 Q1296.9888567356588,486.6404391159256 1319.8185361826766,486.6404391159256 Q1331.8379001283026,486.6404391159256 1342.719336126414,489.1296565011144 Q1353.600772124525,491.58331363794343 1361.5307075087696,495.3171397157267 Q1358.9348093785013,518.4668613979829 1358.9348093785013,518.4668613979829 Q1350.5781510139386,514.8397160652792 1340.8346429633423,512.4927396735297 Q1331.091134912746,510.1102030334204 1320.0318976728354,510.1102030334204 Q1302.4651349830742,510.1102030334204 1291.1569760046448,517.2933732021082 Q1279.8488170262156,524.4765433707961 1274.3725387788002,536.7092688065812 Q1268.9318207797444,548.9064339940066 1268.9318207797444,564.2329010370979 Q1268.9318207797444,580.1994525506664 1274.4436592755198,592.6455394766107 Q1279.955497771295,605.056066154195 1291.1569760046448,612.1325555778034 Q1302.3584542379947,619.2090450014116 1319.3918132023584,619.2090450014116 Q1324.1213262342171,619.2090450014116 1329.988767213591,618.462279785855 Q1335.8917684413245,617.7155145702983 1341.581408178899,616.221984139185 Q1341.581408178899,585.5690500530023 1341.581408178899,585.5690500530023 C1341.581408178899,585.5690500530023 1319.925216927756,585.5690500530023 1319.925216927756,585.5690500530023 C1319.925216927756,585.5690500530023 1319.925216927756,564.446262527257 1319.925216927756,564.446262527257 C1319.925216927756,564.446262527257 1366.4380217824275,564.446262527257 1366.4380217824275,564.446262527257 C1366.4380217824275,564.446262527257 1366.4380217824275,631.3350896921173 1366.4380217824275,631.3350896921173 Q1358.2947249080241,636.0646027239761 1345.3152342566823,639.3717058214413 Q1332.3713038537003,642.6788089189065 1316.618113830291,642.6788089189065 Q1316.618113830291,642.6788089189065 1316.618113830291,642.6788089189065 ZM1388.1305719984464,639.6917480566799 C1388.1305719984464,639.6917480566799 1388.1305719984464,533.2599247156767 1388.1305719984464,533.2599247156767 C1388.1305719984464,533.2599247156767 1412.0270588962592,533.2599247156767 1412.0270588962592,533.2599247156767 C1412.0270588962592,533.2599247156767 1412.0270588962592,639.6917480566799 1412.0270588962592,639.6917480566799 C1412.0270588962592,639.6917480566799 1388.1305719984464,639.6917480566799 1388.1305719984464,639.6917480566799 ZM1388.1305719984464,514.4129930849612 C1388.1305719984464,514.4129930849612 1388.1305719984464,489.6274999781522 1388.1305719984464,489.6274999781522 C1388.1305719984464,489.6274999781522 1412.0270588962592,489.6274999781522 1412.0270588962592,489.6274999781522 C1412.0270588962592,489.6274999781522 1412.0270588962592,514.4129930849612 1412.0270588962592,514.4129930849612 C1412.0270588962592,514.4129930849612 1388.1305719984464,514.4129930849612 1388.1305719984464,514.4129930849612 ZM1472.8928342683666,641.8253629582703 Q1462.8292839825317,641.8253629582703 1456.6062405195594,637.878175390328 Q1450.3831970565875,633.8954275740258 1447.5028169394402,627.7435046077734 Q1444.6224368222931,621.591581641521 1444.6224368222931,614.8351344531512 Q1444.6224368222931,552.6758203201497 1444.6224368222931,552.6758203201497 C1444.6224368222931,552.6758203201497 1428.3002828251263,552.6758203201497 1428.3002828251263,552.6758203201497 C1428.3002828251263,552.6758203201497 1430.4694579750767,533.2599247156767 1430.4694579750767,533.2599247156767 C1430.4694579750767,533.2599247156767 1444.6224368222931,533.2599247156767 1444.6224368222931,533.2599247156767 C1444.6224368222931,533.2599247156767 1444.6224368222931,508.8300340924661 1444.6224368222931,508.8300340924661 C1444.6224368222931,508.8300340924661 1468.5189237201062,506.37637695563717 1468.5189237201062,506.37637695563717 C1468.5189237201062,506.37637695563717 1468.5189237201062,533.2599247156767 1468.5189237201062,533.2599247156767 C1468.5189237201062,533.2599247156767 1493.5888988137938,533.2599247156767 1493.5888988137938,533.2599247156767 C1493.5888988137938,533.2599247156767 1493.5888988137938,552.6758203201497 1493.5888988137938,552.6758203201497 C1493.5888988137938,552.6758203201497 1468.5189237201062,552.6758203201497 1468.5189237201062,552.6758203201497 C1468.5189237201062,552.6758203201497 1468.5189237201062,603.5625357230817 1468.5189237201062,603.5625357230817 Q1468.5189237201062,612.4525978130418 1469.5857311709015,616.3642251326244 Q1470.6525386216965,620.2758524522069 1474.4930454445594,621.3070996546422 Q1478.369112515782,622.3383468570776 1486.9391323705036,622.3383468570776 Q1493.3755373236347,622.3383468570776 1493.3755373236347,622.3383468570776 C1493.3755373236347,622.3383468570776 1491.3486031671239,641.8253629582703 1491.3486031671239,641.8253629582703 C1491.3486031671239,641.8253629582703 1472.8928342683666,641.8253629582703 1472.8928342683666,641.8253629582703 ZM1512.5619755638131,639.6917480566799 C1512.5619755638131,639.6917480566799 1512.5619755638131,489.6274999781522 1512.5619755638131,489.6274999781522 C1512.5619755638131,489.6274999781522 1537.7386314025805,489.6274999781522 1537.7386314025805,489.6274999781522 C1537.7386314025805,489.6274999781522 1605.480904528077,592.112135751213 1605.480904528077,592.112135751213 C1605.480904528077,592.112135751213 1605.480904528077,489.6274999781522 1605.480904528077,489.6274999781522 C1605.480904528077,489.6274999781522 1630.479759125045,489.6274999781522 1630.479759125045,489.6274999781522 C1630.479759125045,489.6274999781522 1630.479759125045,639.6917480566799 1630.479759125045,639.6917480566799 C1630.479759125045,639.6917480566799 1609.7836945796175,639.6917480566799 1609.7836945796175,639.6917480566799 C1609.7836945796175,639.6917480566799 1537.418589167342,531.1263098140862 1537.418589167342,531.1263098140862 C1537.418589167342,531.1263098140862 1537.418589167342,639.6917480566799 1537.418589167342,639.6917480566799 C1537.418589167342,639.6917480566799 1512.5619755638131,639.6917480566799 1512.5619755638131,639.6917480566799 ZM1704.5492387652278,641.8253629582703 Q1687.4091990557845,641.8253629582703 1675.3187146134387,634.3221505543439 Q1663.2637904194528,626.8189381504176 1656.8985059630413,614.3017307277537 Q1650.5332215066298,601.7489630567298 1650.5332215066298,586.6358575037975 Q1650.5332215066298,571.5227519508653 1656.8985059630413,558.8988637831219 Q1663.2637904194528,546.2394153670185 1675.3187146134387,538.7006427147323 Q1687.4091990557845,531.1263098140862 1704.5492387652278,531.1263098140862 Q1721.5825977295915,531.1263098140862 1733.6730821719373,538.7006427147323 Q1745.7991268626429,546.2394153670185 1752.1644113190546,558.8988637831219 Q1758.565256023826,571.5227519508653 1758.565256023826,586.6358575037975 Q1758.565256023826,601.7489630567298 1752.1644113190546,614.3017307277537 Q1745.7991268626429,626.8189381504176 1733.6730821719373,634.3221505543439 Q1721.5825977295915,641.8253629582703 1704.5492387652278,641.8253629582703 Q1704.5492387652278,641.8253629582703 1704.5492387652278,641.8253629582703 ZM1704.5492387652278,621.6982623866005 Q1718.7022176124444,621.6982623866005 1726.34767100981,612.0969953294435 Q1734.0286846555357,602.4957282722866 1734.0286846555357,586.6358575037975 Q1734.0286846555357,570.5626252451495 1726.34767100981,560.9257979396327 Q1718.7022176124444,551.2534103857561 1704.5492387652278,551.2534103857561 Q1690.3962599180113,551.2534103857561 1682.6796860239258,560.9257979396327 Q1674.9631121298403,570.5626252451495 1674.9631121298403,586.6358575037975 Q1674.9631121298403,602.4957282722866 1682.6796860239258,612.0969953294435 Q1690.3962599180113,621.6982623866005 1704.5492387652278,621.6982623866005 Q1704.5492387652278,621.6982623866005 1704.5492387652278,621.6982623866005 ZM1811.514917280094,641.8253629582703 Q1801.4513669942592,641.8253629582703 1795.228323531287,637.878175390328 Q1789.0052800683147,633.8954275740258 1786.1248999511677,627.7435046077734 Q1783.2445198340206,621.591581641521 1783.2445198340206,614.8351344531512 Q1783.2445198340206,552.6758203201497 1783.2445198340206,552.6758203201497 C1783.2445198340206,552.6758203201497 1766.9223658368537,552.6758203201497 1766.9223658368537,552.6758203201497 C1766.9223658368537,552.6758203201497 1769.0915409868041,533.2599247156767 1769.0915409868041,533.2599247156767 C1769.0915409868041,533.2599247156767 1783.2445198340206,533.2599247156767 1783.2445198340206,533.2599247156767 C1783.2445198340206,533.2599247156767 1783.2445198340206,508.8300340924661 1783.2445198340206,508.8300340924661 C1783.2445198340206,508.8300340924661 1807.1410067318336,506.37637695563717 1807.1410067318336,506.37637695563717 C1807.1410067318336,506.37637695563717 1807.1410067318336,533.2599247156767 1807.1410067318336,533.2599247156767 C1807.1410067318336,533.2599247156767 1832.2109818255212,533.2599247156767 1832.2109818255212,533.2599247156767 C1832.2109818255212,533.2599247156767 1832.2109818255212,552.6758203201497 1832.2109818255212,552.6758203201497 C1832.2109818255212,552.6758203201497 1807.1410067318336,552.6758203201497 1807.1410067318336,552.6758203201497 C1807.1410067318336,552.6758203201497 1807.1410067318336,603.5625357230817 1807.1410067318336,603.5625357230817 Q1807.1410067318336,612.4525978130418 1808.207814182629,616.3642251326244 Q1809.274621633424,620.2758524522069 1813.115128456287,621.3070996546422 Q1816.9911955275095,622.3383468570776 1825.5612153822312,622.3383468570776 Q1831.9976203353622,622.3383468570776 1831.9976203353622,622.3383468570776 C1831.9976203353622,622.3383468570776 1829.9706861788513,641.8253629582703 1829.9706861788513,641.8253629582703 C1829.9706861788513,641.8253629582703 1811.514917280094,641.8253629582703 1811.514917280094,641.8253629582703 ZM1900.1592196317038,641.8253629582703 Q1881.098926510829,641.8253629582703 1868.2972371012863,634.1087890641849 Q1855.4955476917437,626.3922151700995 1848.9880222418928,613.6972065056364 Q1842.5160570404018,601.0021978411733 1842.5160570404018,585.7824115431614 Q1842.5160570404018,571.0960289705472 1848.5612992615747,558.7210625413227 Q1854.6065414827476,546.346096112098 1866.2347426964157,538.9140042048914 Q1877.8629439100835,531.4463520493248 1894.505140142489,531.4463520493248 Q1909.0848419700237,531.4463520493248 1919.3617537460177,537.3493532770584 Q1929.6386655220115,543.2167942564321 1935.0438232727074,553.5648265291458 Q1940.484541271763,563.9128588018593 1940.484541271763,577.2123916884398 Q1940.484541271763,580.1994525506664 1940.0933785398047,583.4709953997717 Q1939.7377760562063,586.742538248877 1939.0621313373695,590.1918823397816 Q1867.2659898988509,590.1918823397816 1867.2659898988509,590.1918823397816 Q1868.7595203299643,601.8556438018094 1873.8090755970616,608.7187717352587 Q1878.858630864159,615.5818996687078 1886.3618432680855,618.6400810276542 Q1893.8650556720117,621.6982623866005 1902.541756271813,621.6982623866005 Q1911.1117761265346,621.6982623866005 1919.077271759139,619.6002077333699 Q1927.078327640103,617.5021530801394 1933.9414555735523,613.8750077474356 Q1935.7550282399043,633.6820660838669 1935.7550282399043,633.6820660838669 Q1929.6386655220115,636.7046871944533 1920.6419226869718,639.2650250763618 Q1911.6451798519322,641.8253629582703 1900.1592196317038,641.8253629582703 Q1900.1592196317038,641.8253629582703 1900.1592196317038,641.8253629582703 ZM1868.3327973496462,573.8697283426147 C1868.3327973496462,573.8697283426147 1916.0190904001925,573.8697283426147 1916.0190904001925,573.8697283426147 Q1916.0190904001925,568.1089681083206 1913.8143550018824,563.0238525928634 Q1911.6451798519322,557.9031768290463 1906.8801065717134,554.7383147250205 Q1902.115033291495,551.5734526209947 1894.3984593974094,551.5734526209947 Q1883.12586066734,551.5734526209947 1876.831696707648,557.6898153388872 Q1870.573092996316,563.8061780567798 1868.3327973496462,573.8697283426147 Q1868.3327973496462,573.8697283426147 1868.3327973496462,573.8697283426147 ZM2029.442600306899,642.6788089189065 Q2006.9329630951197,642.6788089189065 1989.6862426405971,633.0419816133897 Q1972.4395221860746,623.4051543078729 1962.6604538871184,605.8739518664713 Q1952.9169458365218,588.3427494250699 1952.9169458365218,564.659624017416 Q1952.9169458365218,540.9764986097621 1962.8738153772772,523.4808564167205 Q1972.8662451663924,505.94965397531905 1990.3263271110743,496.31282666980223 Q2007.786409055756,486.6404391159256 2030.296046267535,486.6404391159256 Q2041.9953679779228,486.6404391159256 2052.0589182637577,489.16521674947427 Q2062.1224685495927,491.68999438302296 2069.5190002084396,495.4238204608062 Q2066.8519815814516,518.8935843783011 2066.8519815814516,518.8935843783011 Q2058.7086847070477,515.1597583005178 2049.6763816236485,512.6349806669691 Q2040.6796387886088,510.1102030334204 2030.082684777376,510.1102030334204 Q2013.5827295384101,510.1102030334204 2002.4879320501398,517.2578129537484 Q1991.3931345618694,524.3698626257166 1985.7746153210146,536.7448290549411 Q1980.1560960801598,549.1197954841657 1980.1560960801598,564.659624017416 Q1980.1560960801598,580.1994525506664 1985.667934575935,592.574418979891 Q1991.1797730717103,604.9493854091155 2002.1678898149012,612.0969953294435 Q2013.156006558092,619.2090450014116 2029.442600306899,619.2090450014116 Q2040.35959655337,619.2090450014116 2049.32077914005,616.8620686096622 Q2058.2819617267296,614.5150922179126 2066.8519815814516,610.425663656531 Q2069.5190002084396,634.0021083191053 2069.5190002084396,634.0021083191053 Q2061.1623418438767,637.878175390328 2051.0987915580417,640.2607120304374 Q2041.035241272207,642.6788089189065 2029.442600306899,642.6788089189065 Q2029.442600306899,642.6788089189065 2029.442600306899,642.6788089189065 ZM2076.6172286120022,676.5677256058347 C2076.6172286120022,676.5677256058347 2074.0568907300935,655.1248958448507 2074.0568907300935,655.1248958448507 Q2084.1204410159285,655.1248958448507 2088.494351564189,650.82210579331 Q2092.903822360809,646.5548759901292 2092.903822360809,635.8156809854572 Q2092.903822360809,489.6274999781522 2092.903822360809,489.6274999781522 C2092.903822360809,489.6274999781522 2117.760435964338,489.6274999781522 2117.760435964338,489.6274999781522 C2117.760435964338,489.6274999781522 2117.760435964338,641.2919592328727 2117.760435964338,641.2919592328727 Q2117.760435964338,660.2811318570276 2108.799253377658,668.4244287314311 Q2099.873631039338,676.5677256058347 2083.587037290531,676.5677256058347 Q2076.6172286120022,676.5677256058347 2076.6172286120022,676.5677256058347 ZM2151.216726114091,639.6917480566799 C2151.216726114091,639.6917480566799 2151.216726114091,489.6274999781522 2151.216726114091,489.6274999781522 C2151.216726114091,489.6274999781522 2245.6647457578283,489.6274999781522 2245.6647457578283,489.6274999781522 C2245.6647457578283,489.6274999781522 2245.6647457578283,513.2039446407266 2245.6647457578283,513.2039446407266 C2245.6647457578283,513.2039446407266 2176.500062697938,513.2039446407266 2176.500062697938,513.2039446407266 C2176.500062697938,513.2039446407266 2176.500062697938,549.5465184644837 2176.500062697938,549.5465184644837 C2176.500062697938,549.5465184644837 2230.6583209499754,549.5465184644837 2230.6583209499754,549.5465184644837 C2230.6583209499754,549.5465184644837 2230.6583209499754,573.1229631270581 2230.6583209499754,573.1229631270581 C2230.6583209499754,573.1229631270581 2176.500062697938,573.1229631270581 2176.500062697938,573.1229631270581 C2176.500062697938,573.1229631270581 2176.500062697938,616.1153033941055 2176.500062697938,616.1153033941055 C2176.500062697938,616.1153033941055 2247.691679914339,616.1153033941055 2247.691679914339,616.1153033941055 C2247.691679914339,616.1153033941055 2247.691679914339,639.6917480566799 2247.691679914339,639.6917480566799 C2247.691679914339,639.6917480566799 2151.216726114091,639.6917480566799 2151.216726114091,639.6917480566799 Z" fill="#000000"/>
	</g>
	<g>
		<path d="M624.9999999999994,214.99999999999955 L2122.4769736429275,214.99999999999955 L2122.4769736429275,864.9999999999995 L624.9999999999994,864.9999999999995 L624.9999999999994,214.99999999999955 Z" fill="#000000" fill-opacity="0"/>
	</g>
</g></g></svg>